<?xml version="1.0" encoding="UTF-8" standalone="no"?>
<!-- Created with Inkscape (http://www.inkscape.org/) -->

<svg
   width="2000.0001"
   height="2000.0001"
   viewBox="0 0 529.16669 529.16669"
   version="1.1"
   id="svg1"
   xmlns="http://www.w3.org/2000/svg"
   xmlns:svg="http://www.w3.org/2000/svg">
  <defs
     id="defs1" />
  <g
     id="layer1"
     transform="matrix(0.80102257,0,0,0.80102257,52.646128,52.646128)">
    <path
       d="M 264.58339,13.229166 A 251.35423,251.35423 0 0 0 13.229166,264.58339 251.35423,251.35423 0 0 0 264.58339,515.93749 251.35423,251.35423 0 0 0 515.93749,264.58339 251.35423,251.35423 0 0 0 264.58339,13.229166 Z m 0,56.580876 A 194.77345,194.77345 0 0 1 459.3565,264.58339 194.77345,194.77345 0 0 1 264.58339,459.3565 194.77345,194.77345 0 0 1 69.810042,264.58339 194.77345,194.77345 0 0 1 264.58339,69.810042 Z"
       style="fill:#007bff;fill-opacity:1;stroke-width:0.36043"
       id="path3" />
    <path
       d="m 174.3768,153.4155 -0.68371,76.4937 -1.30047,145.48621 a 19.917186,19.917186 0 0 0 29.72047,17.51492 l 66.58715,-37.6546 126.64505,-71.61705 a 19.917215,19.917215 0 0 0 0.30826,-34.49631 L 329.74993,210.30356 204.40559,136.43432 A 19.917213,19.917213 0 0 0 174.3768,153.4155 Z"
       style="fill:#007bff;fill-opacity:1;stroke-width:0.371136"
       id="path4" />
    <path
       d="m 224.47895,217.95912 -0.28678,32.08169 -0.54539,61.01735 a 8.3533283,8.3533283 0 0 0 12.46488,7.34602 l 27.92697,-15.79259 53.11518,-30.0364 a 8.3533397,8.3533397 0 0 0 0.12932,-14.46784 l -27.64015,-16.28916 -52.56976,-30.981 a 8.353339,8.353339 0 0 0 -12.59429,7.12193 z"
       style="display:none;fill:#f9f9f9;fill-opacity:1;stroke-width:0.155651"
       id="path5" />
  </g>
  <path
     d="m 331.51258,301.2307 v -52.2532 c 0,-4.11716 -3.28528,-8.07864 -7.38111,-8.48727 -0.24651,-0.0246 -0.49186,-0.048 -0.73607,-0.0703 -4.09853,-0.37354 -10.7934,-0.34565 -14.88315,0.1121 -7.39024,0.82715 -13.7186,2.72127 -19.80676,4.82661 -3.89098,1.34553 -10.1564,3.65658 -14.08999,4.87121 -12.10356,3.73735 -25.70932,5.75003 -46.85384,-0.29216 -3.95823,-1.13109 -7.10847,1.09485 -7.10847,5.21201 v 108.7712 l 47.22813,-26.70689 z"
     style="opacity:1;fill:#ffffff;stroke-width:1.27598"
     id="path24" />
  <path
     id="path26"
     style="opacity:1;fill:#ececec;stroke-width:1.27598"
     d="m 315.95074,240.16415 c -2.69726,0.0175 -5.39344,0.13906 -7.43831,0.36793 -7.39024,0.82716 -13.7189,2.72124 -19.80706,4.82658 -3.89097,1.34554 -10.1565,3.6564 -14.0901,4.87102 -12.10354,3.73735 -25.70897,5.75022 -46.85347,-0.29197 -3.95822,-1.13109 -7.10861,1.09493 -7.10861,5.21209 v 23.84919 c 0,-4.11716 3.15039,-6.34318 7.10861,-5.21209 21.1445,6.04218 34.74993,4.02932 46.85347,0.29197 3.9336,-1.21462 10.19913,-3.52548 14.0901,-4.87102 6.08816,-2.10534 12.41682,-3.99943 19.80706,-4.82658 4.08974,-0.45774 10.78429,-0.48568 14.88281,-0.11213 0.24421,0.0222 0.48989,0.0457 0.73639,0.0703 4.09583,0.40862 7.38095,4.37018 7.38095,8.48733 v -23.84919 c 0,-4.11715 -3.28512,-8.07871 -7.38095,-8.48733 -0.2465,-0.0246 -0.49218,-0.048 -0.73639,-0.0703 -2.04926,-0.18677 -4.74725,-0.2733 -7.4445,-0.2558 z" />
  <path
     d="m 251.84354,346.28325 h -12.10831 c -1.36057,0 -2.45566,1.0951 -2.45566,2.45566 0,1.36058 1.09509,2.45618 2.45566,2.45618 h 3.42202 z"
     style="opacity:1;fill:#007bff;fill-opacity:1;stroke-width:0.264583"
     id="path39" />
  <path
     d="m 276.16402,332.53008 h -36.42879 c -1.36057,0 -2.45566,1.09561 -2.45566,2.45619 0,1.36056 1.09509,2.45566 2.45566,2.45566 h 27.74301 l 0.40308,-0.22789 z"
     style="opacity:1;fill:#e6e6e6;stroke-width:0.264583"
     id="path38" />
  <path
     d="m 300.4845,318.77692 h -60.74927 c -1.36057,0 -2.45566,1.09561 -2.45566,2.45618 0,1.36057 1.09509,2.45566 2.45566,2.45566 h 52.06349 z"
     style="opacity:1;fill:#007bff;fill-opacity:1;stroke-width:0.264583"
     id="path37" />
  <path
     d="m 239.73523,305.18757 c -1.36057,0 -2.45566,1.09561 -2.45566,2.45618 0,1.36057 1.09509,2.45566 2.45566,2.45566 h 72.69531 c 1.36057,0 2.45566,-1.09509 2.45566,-2.45566 0,-1.36057 -1.09509,-2.45618 -2.45566,-2.45618 z"
     style="opacity:1;fill:#e6e6e6;stroke-width:0.264583"
     id="path36" />
  <path
     d="m 239.73523,290.12492 c -1.36057,0 -2.45566,1.09509 -2.45566,2.45567 0,1.36056 1.09509,2.45618 2.45566,2.45618 h 72.69531 c 1.36057,0 2.45566,-1.09562 2.45566,-2.45618 0,-1.36058 -1.09509,-2.45567 -2.45566,-2.45567 z"
     style="opacity:1;fill:#007bff;fill-opacity:1;stroke-width:0.264583"
     id="path35" />
</svg>
