<?xml version="1.0" encoding="UTF-8" standalone="no"?>
<!-- Created with Inkscape (http://www.inkscape.org/) -->

<svg
   width="1999.9999"
   height="600"
   viewBox="0 0 529.16662 158.75"
   version="1.1"
   id="svg1"
   xml:space="preserve"
   xmlns="http://www.w3.org/2000/svg"
   xmlns:svg="http://www.w3.org/2000/svg"><defs
     id="defs1"><rect
       x="11.114056"
       y="277.85141"
       width="1978.302"
       height="413.9986"
       id="rect2" /></defs><g
     id="layer1"><path
       id="text2"
       style="font-size:333.333px;font-family:Helvetica;-inkscape-font-specification:Helvetica;white-space:pre;shape-inside:url(#rect2);fill:#ffffff;fill-opacity:1;stroke:#007bff;stroke-width:12.499;stroke-dasharray:none;stroke-opacity:1"
       d="m 1316.7794,351.61369 c -7.1111,0 -12.4451,1.22267 -16.0006,3.66711 -3.3333,2.22222 -4.9993,6.55436 -4.9993,12.99879 v 6.33469 c 0,6.22221 1.5555,10.55434 4.6666,12.99878 3.1112,2.44444 8.4435,3.66711 15.999,3.66711 7.5556,0 13,-1.11064 16.3333,-3.33285 3.3333,-2.44444 5.0009,-6.88861 5.0009,-13.33304 v -6.33469 c 0,-6.22221 -1.5555,-10.55435 -4.6666,-12.99879 -3.1111,-2.44444 -8.5555,-3.66711 -16.3333,-3.66711 z m -180.3327,6.33307 c -6.2222,0 -11.3338,2.00044 -15.3337,6.00044 -4,3.77777 -6.0005,8.55481 -6.0005,14.33257 v 192.66785 c 0,5.77777 1.8884,10.66522 5.6662,14.66521 4,3.77777 8.8891,5.6678 14.6668,5.6678 h 108.334 c 5.7778,0 10.5548,-1.77799 14.3326,-5.33354 4,-3.77777 6.0004,-8.44439 6.0004,-13.99994 0,-5.77776 -2.0004,-10.44438 -6.0004,-13.99993 -3.7778,-3.77777 -8.5548,-5.6678 -14.3326,-5.6678 h -86.9998 V 378.27977 c 0,-5.77776 -2.1109,-10.5548 -6.3331,-14.33257 -4,-4 -8.6666,-6.00044 -13.9999,-6.00044 z m 439.6658,16.66752 c -5.7778,0 -10.6669,1.99882 -14.6669,5.99881 -3.7777,3.77777 -5.6662,8.55643 -5.6662,14.33419 v 21.33255 h -15.3337 c -5.3333,0 -9.7775,1.77799 -13.333,5.33353 -3.5556,3.33333 -5.3336,7.55505 -5.3336,12.66615 0,5.33332 1.778,9.77911 5.3336,13.33466 3.5555,3.55555 7.9997,5.33354 13.333,5.33354 h 15.3337 v 91.99911 c 0,10.88886 1.666,19.44433 4.9993,25.66654 3.3334,6.22221 7.4447,10.88883 12.3335,13.99994 5.1111,2.88888 10.4451,4.77729 16.0007,5.66618 5.7777,0.66666 10.9997,1.00115 15.6663,1.00115 7.7778,0 15.0002,-2.00044 21.6668,-6.00044 6.8889,-3.99999 10.3328,-9.11151 10.3328,-15.33372 0,-5.1111 -1.3331,-9.11037 -3.9997,-11.99925 -2.4445,-2.88889 -5.2227,-4.33401 -8.3338,-4.33401 -2.8889,0 -5.4446,0.55532 -7.6668,1.66643 -2.2222,0.88889 -4.666,1.33379 -7.3326,1.33379 -2.4445,0 -4.7778,-0.4449 -7,-1.33379 -2,-0.88889 -3.6676,-2.33239 -5.0009,-4.33239 -1.1111,-2 -1.6664,-4.55576 -1.6664,-7.66686 v -90.33268 h 23.6674 c 5.3334,0 9.7775,-1.66758 13.3331,-5.0009 3.5555,-3.55555 5.3335,-7.8893 5.3335,-13.0004 0,-5.33333 -1.778,-9.7775 -5.3335,-13.33305 -3.5556,-3.55554 -7.9997,-5.33353 -13.3331,-5.33353 h -23.6674 v -21.33255 c 0,-5.77776 -1.8884,-10.55642 -5.6662,-14.33419 -3.5556,-3.99999 -8.2222,-5.99881 -13.9999,-5.99881 z M 112.11326,409.61411 c -17.111077,0 -32.333609,3.99927 -45.666916,11.99925 -13.111085,7.77777 -23.444546,18.66655 -31.000087,32.66652 -7.333318,13.77775 -10.999718,29.77805 -10.999718,48.00024 0,17.3333 3.443949,33.00073 10.332824,47.0007 7.111097,13.99997 17.111689,25.11121 30.000553,33.33341 12.888863,7.99999 28.111395,11.99925 45.666914,11.99925 11.77776,0 22.66654,-1.33309 32.66652,-3.99975 10.2222,-2.88888 18.4448,-6.55528 24.66701,-10.99972 6.22221,-4.66665 9.33329,-9.77817 9.33329,-15.33372 0,-5.33332 -1.55554,-9.77749 -4.66665,-13.33304 -3.1111,-3.77777 -7.55688,-5.66779 -13.33465,-5.66779 -4.88888,0 -8.55528,1.00022 -10.99972,3.00021 -2.44444,2 -5.22103,3.89002 -8.33214,5.6678 -2.66666,1.33333 -6.00019,2.33193 -10.00018,2.9986 -4,0.66666 -8.77865,1.00115 -14.33419,1.00115 -9.99998,0 -18.888323,-2.44534 -26.666085,-7.33422 -7.555541,-4.88888 -13.55525,-11.44391 -17.999686,-19.66612 -4.222214,-8.44443 -6.333073,-18.00012 -6.333073,-28.66676 0,-10.88887 2.110859,-20.44456 6.333073,-28.66677 4.222214,-8.44442 10.221924,-15.11149 17.999686,-20.00036 7.999984,-4.88888 17.666095,-7.33261 28.999405,-7.33261 2.22222,0 5.55575,0.4449 10.00018,1.33379 4.66666,0.66666 8.11061,1.66688 10.33283,3.00021 2.44444,1.33333 4.55691,2.77684 6.33469,4.33239 1.77777,1.55556 3.7766,2.88865 5.99881,3.99975 2.44444,0.88889 5.44511,1.33379 9.00065,1.33379 5.1111,0 8.99996,-1.88841 11.66662,-5.66618 2.66666,-3.99999 3.99975,-8.22332 3.99975,-12.66776 0,-6.66665 -2.66618,-12.33349 -7.9995,-17.00015 -5.11111,-4.88888 -12.44552,-8.6657 -22.00106,-11.33236 -9.33331,-2.66666 -20.33251,-3.99975 -32.99915,-3.99975 z m 590.3322,0 c -5.55554,0 -11.11035,0.66574 -16.66589,1.99907 -5.55555,1.33333 -10.77749,3.44419 -15.66637,6.33307 -4.88887,2.66667 -9.33304,6.11223 -13.33304,10.33444 -2.71971,2.8797 -4.97131,6.22759 -6.99996,9.79834 v -4.79905 c 0,-5.77777 -1.89003,-10.55481 -5.6678,-14.33258 -3.77777,-3.99999 -8.55481,-6.00043 -14.33257,-6.00043 -5.77777,0 -10.55642,2.00044 -14.33419,6.00043 -3.77777,3.77777 -5.66618,8.55481 -5.66618,14.33258 v 137.66764 c 0,5.77777 1.88841,10.66522 5.66618,14.66521 3.77777,3.77777 8.55642,5.6678 14.33419,5.6678 5.77776,0 10.5548,-1.89003 14.33257,-5.6678 3.77777,-3.99999 5.6678,-8.88744 5.6678,-14.66521 v -79.00033 c 0,-7.99998 1.00022,-14.88949 3.00021,-20.66726 2.22222,-5.99999 4.99882,-10.99948 8.33214,-14.99947 3.55555,-3.99999 7.33398,-6.88862 11.33398,-8.66639 4.22221,-2 8.33351,-3.00022 12.3335,-3.00022 4.44444,0 8.33329,0.77777 11.66662,2.33332 3.55554,1.55555 7.44439,2.33332 11.66661,2.33332 4.44443,0 8.55573,-1.55554 12.33351,-4.66664 3.77777,-3.33333 5.66617,-8.6673 5.66617,-16.00062 0,-5.1111 -2.33331,-9.55527 -6.99996,-13.33304 -4.44444,-3.77777 -10.00086,-5.66618 -16.66752,-5.66618 z m 110.33467,0 c -10.88887,0 -21.33436,2.11086 -31.33434,6.33308 -9.77776,4.22221 -17.77791,10.22192 -24.00012,17.99968 -6.22221,7.77776 -9.33329,17.22304 -9.33329,28.33413 0,9.77775 1.89002,17.88832 5.66779,24.33275 3.77777,6.44444 8.66523,11.66638 14.66522,15.66637 5.99999,3.77777 12.55663,6.88885 19.66773,9.33329 7.33332,2.44444 14.44366,4.66733 21.33254,6.66733 6.66665,1.77777 12.66636,3.66618 17.99969,5.66617 5.55554,2 10.00132,4.44373 13.33465,7.33261 3.33333,2.88889 4.99929,6.77774 4.99929,11.66661 0,5.77777 -1.55554,10.11152 -4.66665,13.00041 -2.88888,2.66666 -6.33283,4.44465 -10.33282,5.33353 -4,0.66667 -7.66639,1.11157 -10.99972,1.33379 -10.66665,0 -19.5566,-1.77799 -26.6677,-5.33354 -7.11109,-3.55554 -13.88857,-8.55503 -20.33301,-14.99947 -3.77777,-3.77777 -7.66662,-5.77821 -11.66661,-6.00043 -3.99999,-0.44444 -7.77842,0.44375 -11.33397,2.66596 -5.55555,3.55555 -8.44418,7.77889 -8.6664,12.66776 -0.22222,4.88888 0.778,8.88815 3.00022,11.99926 8.66665,11.55553 19.55543,19.6661 32.66651,24.33276 13.11109,4.44443 26.22276,6.66732 39.33385,6.66732 10.44442,0 20.66585,-2.00044 30.66583,-6.00043 9.99998,-4.22221 18.33461,-10.33234 25.00127,-18.33233 6.66665,-7.99998 9.99857,-17.6677 9.99857,-29.00101 0,-9.77776 -1.77638,-17.77791 -5.33193,-24.00012 -3.55555,-6.44443 -8.22217,-11.66637 -13.99993,-15.66637 -5.77777,-3.99999 -12.11196,-7.22149 -19.00084,-9.66593 -6.88887,-2.44444 -13.66635,-4.55529 -20.33301,-6.33307 -6.44443,-1.77777 -12.55617,-3.55576 -18.33394,-5.33354 -5.55554,-1.99999 -9.99971,-4.44534 -13.33304,-7.33422 -3.33332,-3.11111 -4.99928,-7.22241 -4.99928,-12.33351 0,-5.55554 1.44351,-9.55481 4.33239,-11.99925 2.88888,-2.66666 6.22241,-4.33262 10.00018,-4.99928 4,-0.88889 7.6664,-1.33379 10.99972,-1.33379 8.22221,0 15.44459,1.4435 21.6668,4.33239 6.44443,2.88888 11.55595,6.77773 15.33372,11.66661 2.88889,2.66666 6.55528,4.2222 10.99972,4.66665 4.44444,0.22222 8.33329,-0.99884 11.66661,-3.6655 4.66666,-3.77777 6.77752,-8.0011 6.33308,-12.66776 -0.44445,-4.66666 -1.88795,-8.66593 -4.33239,-11.99925 -4.66666,-5.99999 -10.44554,-10.77865 -17.33441,-14.33419 -6.88888,-3.77777 -14.11126,-6.44395 -21.6668,-7.99951 -7.55554,-1.77777 -14.7763,-2.66596 -21.66518,-2.66596 z m 179.66583,0 c -14.66664,0 -28.55608,3.77682 -41.66716,11.33236 -13.11109,7.55554 -23.77742,18.44432 -31.99962,32.66652 -7.99999,13.99997 -11.99926,31.00049 -11.99926,51.00045 0,17.11108 3.6664,32.44403 10.99972,45.99956 7.55554,13.55552 18.22187,24.33389 31.99962,32.33387 13.99998,7.77776 30.44518,11.66661 49.33403,11.66661 11.11111,0 21.88781,-1.77799 32.33231,-5.33354 10.4444,-3.77777 18.5566,-8.11152 24.3343,-13.0004 6.2222,-4.88888 9.3333,-10.33327 9.3333,-16.33325 0,-4.44444 -1.6676,-8.33329 -5.0009,-11.66662 -3.1111,-3.33332 -7.1104,-4.99928 -11.9992,-4.99928 -3.5556,0 -7.334,1.00022 -11.334,3.00022 -2.4444,1.33333 -5.2227,2.99928 -8.3338,4.99928 -2.8888,1.77777 -6.7777,3.33331 -11.6666,4.66665 -4.8889,1.33333 -11.4439,2.00068 -19.66609,2.00068 -8.88887,0 -17.33393,-2.11086 -25.33391,-6.33308 -7.77776,-4.44443 -14.22076,-10.77862 -19.33186,-19.00083 -2.85178,-4.9258 -4.77178,-10.53028 -5.96006,-16.6659 h 109.95842 c 5.3333,0 10.0016,-1.66757 14.0016,-5.0009 3.9999,-3.33332 6.1108,-7.66707 6.333,-13.0004 0,-11.99997 -2.3333,-23.33204 -6.9999,-33.99869 -4.4445,-10.66664 -10.5562,-19.99988 -18.334,-27.99987 -7.7777,-8.2222 -16.7781,-14.66681 -27.0003,-19.33347 -10,-4.66666 -20.6663,-6.99997 -31.99964,-6.99997 z m 443.66714,0 c -10.8889,0 -21.3344,2.11086 -31.3343,6.33308 -9.7778,4.22221 -17.7779,10.22192 -24.0002,17.99968 -6.2222,7.77776 -9.3332,17.22304 -9.3332,28.33413 0,9.77775 1.89,17.88832 5.6677,24.33275 3.7778,6.44444 8.6669,11.66638 14.6669,15.66637 6,3.77777 12.555,6.88885 19.6661,9.33329 7.3333,2.44444 14.4437,4.66733 21.3325,6.66733 6.6667,1.77777 12.6664,3.66618 17.9997,5.66617 5.5556,2 10.0013,4.44373 13.3347,7.33261 3.3333,2.88889 4.9993,6.77774 4.9993,11.66661 0,5.77777 -1.5556,10.11152 -4.6667,13.00041 -2.8889,2.66666 -6.3328,4.44465 -10.3328,5.33353 -4,0.66667 -7.6664,1.11157 -10.9997,1.33379 -10.6667,0 -19.5566,-1.77799 -26.6677,-5.33354 -7.1111,-3.55554 -13.8886,-8.55503 -20.333,-14.99947 -3.7778,-3.77777 -7.6667,-5.77821 -11.6666,-6.00043 -4,-0.44444 -7.7785,0.44375 -11.334,2.66596 -5.5556,3.55555 -8.4442,7.77889 -8.6664,12.66776 -0.2222,4.88888 0.778,8.88815 3.0002,11.99926 8.6667,11.55553 19.5554,19.6661 32.6665,24.33276 13.1111,4.44443 26.2228,6.66732 39.3339,6.66732 10.4444,0 20.6658,-2.00044 30.6658,-6.00043 10,-4.22221 18.3346,-10.33234 25.0013,-18.33233 6.6666,-7.99998 9.9985,-17.6677 9.9985,-29.00101 0,-9.77776 -1.7763,-17.77791 -5.3319,-24.00012 -3.5555,-6.44443 -8.2222,-11.66637 -13.9999,-15.66637 -5.7778,-3.99999 -12.112,-7.22149 -19.0009,-9.66593 -6.8888,-2.44444 -13.6663,-4.55529 -20.333,-6.33307 -6.4444,-1.77777 -12.5561,-3.55576 -18.3339,-5.33354 -5.5556,-1.99999 -9.9997,-4.44534 -13.3331,-7.33422 -3.3333,-3.11111 -4.9992,-7.22241 -4.9992,-12.33351 0,-5.55554 1.4435,-9.55481 4.3324,-11.99925 2.8888,-2.66666 6.2224,-4.33262 10.0001,-4.99928 4,-0.88889 7.6664,-1.33379 10.9998,-1.33379 8.2222,0 15.4445,1.4435 21.6668,4.33239 6.4444,2.88888 11.5559,6.77773 15.3337,11.66661 2.8889,2.66666 6.5553,4.2222 10.9997,4.66665 4.4444,0.22222 8.3333,-0.99884 11.6666,-3.6655 4.6667,-3.77777 6.7775,-8.0011 6.3331,-12.66776 -0.4445,-4.66666 -1.888,-8.66593 -4.3324,-11.99925 -4.6667,-5.99999 -10.4455,-10.77865 -17.3344,-14.33419 -6.8889,-3.77777 -14.1097,-6.44395 -21.6652,-7.99951 -7.5555,-1.77777 -14.7779,-2.66596 -21.6668,-2.66596 z m -1001.99972,3.33286 c -5.77777,0 -10.55642,2.00044 -14.33419,6.00043 -3.77777,3.77777 -5.66618,8.55481 -5.66618,14.33258 v 84.6665 c 0,23.55551 6.44461,42.22199 19.33347,55.99974 13.11109,13.77775 32.00002,20.66726 56.66664,20.66726 24.66662,0 43.55555,-6.88951 56.66663,-20.66726 13.11109,-13.77775 19.66612,-32.44423 19.66612,-55.99974 v -84.6665 c 0,-5.77777 -1.88841,-10.55481 -5.66618,-14.33258 -3.77777,-3.99999 -8.55481,-6.00043 -14.33258,-6.00043 -5.77776,0 -10.55642,2.00044 -14.33419,6.00043 -3.77777,3.77777 -5.66618,8.55481 -5.66618,14.33258 v 84.6665 c 0,13.55553 -3.00066,23.66654 -9.00065,30.33319 -5.99998,6.44444 -15.11077,9.66755 -27.33297,9.66755 -11.99998,0 -21.00035,-3.22311 -27.00034,-9.66755 -5.99999,-6.66665 -8.99903,-16.77766 -8.99903,-30.33319 v -84.6665 c 0,-5.77777 -1.89003,-10.55481 -5.6678,-14.33258 -3.77777,-3.99999 -8.55481,-6.00043 -14.33257,-6.00043 z m 882.66602,0 c -5.7778,0 -10.5564,2.00044 -14.3342,6.00043 -3.7778,3.77777 -5.6662,8.55481 -5.6662,14.33258 v 137.66764 c 0,5.77777 1.8884,10.66522 5.6662,14.66521 3.7778,3.77777 8.5564,5.6678 14.3342,5.6678 5.7778,0 10.5548,-1.89003 14.3326,-5.6678 3.7777,-3.99999 5.6678,-8.88744 5.6678,-14.66521 V 433.27998 c 0,-5.77777 -1.8901,-10.55481 -5.6678,-14.33258 -3.7778,-3.99999 -8.5548,-6.00043 -14.3326,-6.00043 z m -324.33344,33.33341 c 6.88888,0 13.33344,1.55554 19.33344,4.66664 6.2222,2.88889 11.3338,6.88815 15.3338,11.99926 4.2222,5.1111 6.5555,10.88997 6.9999,17.3344 v 2.33332 h -87.07892 c 0.52948,-2.6363 0.97003,-5.4108 1.74555,-7.66686 2.44444,-7.11109 5.77797,-12.77794 10.00018,-17.00015 4.22222,-4.22221 9.22171,-7.22288 14.99947,-9.00065 5.77777,-1.77777 11.99993,-2.66596 18.66658,-2.66596 z"
       transform="matrix(0.32002625,0,0,0.32002625,-2.7148022,-36.292021)" /><g
       id="g2"
       transform="matrix(0.16483977,0,0,0.16483977,47.419195,78.707989)"><g
         id="layer1-7"
         transform="matrix(0.80102257,0,0,0.80102257,52.646128,52.646128)"><path
           d="M 264.58339,13.229166 A 251.35423,251.35423 0 0 0 13.229166,264.58339 251.35423,251.35423 0 0 0 264.58339,515.93749 251.35423,251.35423 0 0 0 515.93749,264.58339 251.35423,251.35423 0 0 0 264.58339,13.229166 Z m 0,56.580876 A 194.77345,194.77345 0 0 1 459.3565,264.58339 194.77345,194.77345 0 0 1 264.58339,459.3565 194.77345,194.77345 0 0 1 69.810042,264.58339 194.77345,194.77345 0 0 1 264.58339,69.810042 Z"
           style="fill:#007bff;fill-opacity:1;stroke-width:0.36043"
           id="path3" /><path
           d="m 174.3768,153.4155 -0.68371,76.4937 -1.30047,145.48621 a 19.917186,19.917186 0 0 0 29.72047,17.51492 l 66.58715,-37.6546 126.64505,-71.61705 a 19.917215,19.917215 0 0 0 0.30826,-34.49631 L 329.74993,210.30356 204.40559,136.43432 A 19.917213,19.917213 0 0 0 174.3768,153.4155 Z"
           style="fill:#007bff;fill-opacity:1;stroke-width:0.371136"
           id="path4" /><path
           d="m 224.47895,217.95912 -0.28678,32.08169 -0.54539,61.01735 a 8.3533283,8.3533283 0 0 0 12.46488,7.34602 l 27.92697,-15.79259 53.11518,-30.0364 a 8.3533397,8.3533397 0 0 0 0.12932,-14.46784 l -27.64015,-16.28916 -52.56976,-30.981 a 8.353339,8.353339 0 0 0 -12.59429,7.12193 z"
           style="display:none;fill:#f9f9f9;fill-opacity:1;stroke-width:0.155651"
           id="path5" /></g><path
         d="m 331.51258,301.2307 v -52.2532 c 0,-4.11716 -3.28528,-8.07864 -7.38111,-8.48727 -0.24651,-0.0246 -0.49186,-0.048 -0.73607,-0.0703 -4.09853,-0.37354 -10.7934,-0.34565 -14.88315,0.1121 -7.39024,0.82715 -13.7186,2.72127 -19.80676,4.82661 -3.89098,1.34553 -10.1564,3.65658 -14.08999,4.87121 -12.10356,3.73735 -25.70932,5.75003 -46.85384,-0.29216 -3.95823,-1.13109 -7.10847,1.09485 -7.10847,5.21201 v 108.7712 l 47.22813,-26.70689 z"
         style="opacity:1;fill:#ffffff;stroke-width:1.27598"
         id="path24" /><path
         id="path26"
         style="opacity:1;fill:#ececec;stroke-width:1.27598"
         d="m 315.95074,240.16415 c -2.69726,0.0175 -5.39344,0.13906 -7.43831,0.36793 -7.39024,0.82716 -13.7189,2.72124 -19.80706,4.82658 -3.89097,1.34554 -10.1565,3.6564 -14.0901,4.87102 -12.10354,3.73735 -25.70897,5.75022 -46.85347,-0.29197 -3.95822,-1.13109 -7.10861,1.09493 -7.10861,5.21209 v 23.84919 c 0,-4.11716 3.15039,-6.34318 7.10861,-5.21209 21.1445,6.04218 34.74993,4.02932 46.85347,0.29197 3.9336,-1.21462 10.19913,-3.52548 14.0901,-4.87102 6.08816,-2.10534 12.41682,-3.99943 19.80706,-4.82658 4.08974,-0.45774 10.78429,-0.48568 14.88281,-0.11213 0.24421,0.0222 0.48989,0.0457 0.73639,0.0703 4.09583,0.40862 7.38095,4.37018 7.38095,8.48733 v -23.84919 c 0,-4.11715 -3.28512,-8.07871 -7.38095,-8.48733 -0.2465,-0.0246 -0.49218,-0.048 -0.73639,-0.0703 -2.04926,-0.18677 -4.74725,-0.2733 -7.4445,-0.2558 z" /><path
         d="m 251.84354,346.28325 h -12.10831 c -1.36057,0 -2.45566,1.0951 -2.45566,2.45566 0,1.36058 1.09509,2.45618 2.45566,2.45618 h 3.42202 z"
         style="opacity:1;fill:#007bff;fill-opacity:1;stroke-width:0.264583"
         id="path39" /><path
         d="m 276.16402,332.53008 h -36.42879 c -1.36057,0 -2.45566,1.09561 -2.45566,2.45619 0,1.36056 1.09509,2.45566 2.45566,2.45566 h 27.74301 l 0.40308,-0.22789 z"
         style="opacity:1;fill:#e6e6e6;stroke-width:0.264583"
         id="path38" /><path
         d="m 300.4845,318.77692 h -60.74927 c -1.36057,0 -2.45566,1.09561 -2.45566,2.45618 0,1.36057 1.09509,2.45566 2.45566,2.45566 h 52.06349 z"
         style="opacity:1;fill:#007bff;fill-opacity:1;stroke-width:0.264583"
         id="path37" /><path
         d="m 239.73523,305.18757 c -1.36057,0 -2.45566,1.09561 -2.45566,2.45618 0,1.36057 1.09509,2.45566 2.45566,2.45566 h 72.69531 c 1.36057,0 2.45566,-1.09509 2.45566,-2.45566 0,-1.36057 -1.09509,-2.45618 -2.45566,-2.45618 z"
         style="opacity:1;fill:#e6e6e6;stroke-width:0.264583"
         id="path36" /><path
         d="m 239.73523,290.12492 c -1.36057,0 -2.45566,1.09509 -2.45566,2.45567 0,1.36056 1.09509,2.45618 2.45566,2.45618 h 72.69531 c 1.36057,0 2.45566,-1.09562 2.45566,-2.45618 0,-1.36058 -1.09509,-2.45567 -2.45566,-2.45567 z"
         style="opacity:1;fill:#007bff;fill-opacity:1;stroke-width:0.264583"
         id="path35" /></g><text
       xml:space="preserve"
       style="font-style:normal;font-variant:normal;font-weight:bold;font-stretch:normal;font-size:80.3483px;font-family:Quicksand;-inkscape-font-specification:'Quicksand Bold';fill:#007bff;fill-opacity:1;stroke:none;stroke-width:2.89254;stroke-dasharray:none;stroke-opacity:1"
       x="0.68500596"
       y="67.133286"
       id="text19"><tspan
         id="tspan19"
         style="fill:#007bff;fill-opacity:1;stroke:none;stroke-width:2.89254"
         x="0.68500596"
         y="67.133286">my</tspan></text></g></svg>
