<?xml version="1.0" encoding="UTF-8" standalone="no"?>
<!-- Created with Inkscape (http://www.inkscape.org/) -->

<svg
   width="2000.0001"
   height="2000.0001"
   viewBox="0 0 529.16669 529.16669"
   version="1.1"
   id="svg1"
   xmlns="http://www.w3.org/2000/svg"
   xmlns:svg="http://www.w3.org/2000/svg">
  <defs
     id="defs1" />
  <g
     id="layer1">
    <path
       d="M 264.58339,13.229166 A 251.35423,251.35423 0 0 0 13.229166,264.58339 251.35423,251.35423 0 0 0 264.58339,515.93749 251.35423,251.35423 0 0 0 515.93749,264.58339 251.35423,251.35423 0 0 0 264.58339,13.229166 Z m 0,56.580876 A 194.77345,194.77345 0 0 1 459.3565,264.58339 194.77345,194.77345 0 0 1 264.58339,459.3565 194.77345,194.77345 0 0 1 69.810042,264.58339 194.77345,194.77345 0 0 1 264.58339,69.810042 Z"
       style="fill:#007bff;fill-opacity:1;stroke-width:0.36043"
       id="path3" />
    <path
       d="m 174.3768,153.4155 -0.68371,76.4937 -1.30047,145.48621 a 19.917186,19.917186 0 0 0 29.72047,17.51492 l 66.58715,-37.6546 126.64505,-71.61705 a 19.917215,19.917215 0 0 0 0.30826,-34.49631 L 329.74993,210.30356 204.40559,136.43432 A 19.917213,19.917213 0 0 0 174.3768,153.4155 Z"
       style="fill:#007bff;fill-opacity:1;stroke-width:0.371136"
       id="path4" />
    <path
       d="m 224.47895,217.95912 -0.28678,32.08169 -0.54539,61.01735 a 8.3533283,8.3533283 0 0 0 12.46488,7.34602 l 27.92697,-15.79259 53.11518,-30.0364 a 8.3533397,8.3533397 0 0 0 0.12932,-14.46784 l -27.64015,-16.28916 -52.56976,-30.981 a 8.353339,8.353339 0 0 0 -12.59429,7.12193 z"
       style="fill:#f9f9f9;fill-opacity:1;stroke-width:0.155651"
       id="path5" />
  </g>
</svg>
